<svg xmlns="http://www.w3.org/2000/svg" viewBox="0 0 100 100">
  <defs>
    <linearGradient id="whatsapp-gradient" x1="0%" y1="0%" x2="100%" y2="100%">
      <stop offset="0%" style="stop-color:#25D366"/>
      <stop offset="100%" style="stop-color:#128C7E"/>
    </linearGradient>
  </defs>
  <rect width="100" height="100" rx="20" fill="url(#whatsapp-gradient)"/>
  <path fill="white" d="M50 15C30.67 15 15 30.67 15 50c0 6.17 1.6 11.97 4.4 17L15 85l18.5-4.85C38.2 82.65 43.9 84 50 84c19.33 0 35-15.67 35-35S69.33 15 50 15zm17.12 49.73c-.73 2.05-4.25 3.92-5.85 4.05-1.6.13-3.1.72-10.42-2.17-8.83-3.5-14.48-12.5-14.92-13.08-.44-.58-3.58-4.77-3.58-9.1s2.27-6.45 3.07-7.33c.8-.88 1.75-1.1 2.33-1.1.58 0 1.17.01 1.68.03.54.02 1.26-.2 1.97 1.5.73 1.75 2.48 6.05 2.7 6.48.22.44.37.95.07 1.53-.3.58-.44.95-.88 1.45-.44.5-1.02 1.17-1.46 1.57-.44.4-.9.84-.39 1.65.51.8 2.28 3.77 4.9 6.1 3.37 3 6.2 3.93 7.08 4.37.88.44 1.4.37 1.9-.22.51-.6 2.18-2.53 2.76-3.4.58-.88 1.17-.73 1.97-.44.8.3 5.07 2.4 5.93 2.83.88.44 1.46.66 1.68 1.02.22.37.22 2.13-.51 4.18z"/>
</svg>
